<svg width="36" height="36" viewBox="0 0 36 36" fill="none" xmlns="http://www.w3.org/2000/svg">
<path d="M0 18C0 8.05888 8.05888 0 18 0C27.9411 0 36 8.05888 36 18C36 27.9411 27.9411 36 18 36C8.05888 36 0 27.9411 0 18Z" fill="url(#paint0_linear_250_6233)" fill-opacity="0.15"/>
<path fill-rule="evenodd" clip-rule="evenodd" d="M9 18C9 14.4049 9 12.6073 9.85669 11.3126C10.2392 10.7344 10.7344 10.2392 11.3126 9.85669C12.6073 9 14.4049 9 18 9C21.5951 9 23.3927 9 24.6874 9.85669C25.2656 10.2392 25.7608 10.7344 26.1433 11.3126C27 12.6073 27 14.4049 27 18C27 21.5951 27 23.3927 26.1433 24.6874C25.7608 25.2656 25.2656 25.7608 24.6874 26.1433C23.3927 27 21.5951 27 18 27C14.4049 27 12.6073 27 11.3126 26.1433C10.7344 25.7608 10.2392 25.2656 9.85669 24.6874C9 23.3927 9 21.5951 9 18ZM22.6594 17.9997C22.6594 20.5731 20.5733 22.6591 18 22.6591C15.4266 22.6591 13.3405 20.5731 13.3405 17.9997C13.3405 15.4264 15.4266 13.3403 18 13.3403C20.5733 13.3403 22.6594 15.4264 22.6594 17.9997ZM18 21.0827C19.7027 21.0827 21.083 19.7024 21.083 17.9997C21.083 16.297 19.7027 14.9167 18 14.9167C16.2973 14.9167 14.917 16.297 14.917 17.9997C14.917 19.7024 16.2973 21.0827 18 21.0827ZM22.8431 14.2015C23.4478 14.2015 23.9379 13.7114 23.9379 13.1067C23.9379 12.5021 23.4478 12.0119 22.8431 12.0119C22.2384 12.0119 21.7483 12.5021 21.7483 13.1067C21.7483 13.7114 22.2384 14.2015 22.8431 14.2015Z" fill="#FF9748"/>
<defs>
<linearGradient id="paint0_linear_250_6233" x1="54.5547" y1="-1.125" x2="-6.94618" y2="32.8369" gradientUnits="userSpaceOnUse">
<stop stop-color="#FF4C24"/>
<stop offset="1" stop-color="#FFE36C"/>
</linearGradient>
</defs>
</svg>
